<?xml version="1.0" encoding="utf-8"?>
<!-- Generator: Adobe Illustrator 19.1.0, SVG Export Plug-In . SVG Version: 6.00 Build 0)  -->
<svg version="1.1" id="Layer_1" xmlns="http://www.w3.org/2000/svg" xmlns:xlink="http://www.w3.org/1999/xlink" x="0px" y="0px"
	 viewBox="0 0 800 800" style="enable-background:new 0 0 800 800;" xml:space="preserve">
<style type="text/css">
	.st0{fill:#FFFFFF;}
	.st1{opacity:0.54;}
	.st2{fill:#010101;}
	.st3{fill:#44A147;}
	.st4{fill:#0C713A;}
	.st5{fill:#1E431E;}
	.st6{fill:#7EC575;}
	.st7{fill:none;}
	.st8{font-family:'MyriadPro-Regular';}
	.st9{font-size:38.742px;}
</style>
<rect class="st0" width="800" height="800"/>
<g>
	<g>
		<g class="st1">
			<path class="st2" d="M318.6,425.7V292.7h48.1c10.4,0,19.4,3.4,27,10.3c7.6,6.9,11.4,15.5,11.4,25.9c0,6.3-1.6,11.9-4.9,16.7
				c-3.3,4.8-7.7,8.5-13.1,11v0.7c6.6,2.2,12,6.1,16.2,11.5c4.2,5.5,6.3,11.8,6.3,19c0,10.9-4,19.9-12,27.1
				c-8,7.2-17.4,10.8-28.3,10.8H318.6z M335.7,349.7h31c6.4,0,11.6-2.1,15.5-6.4c3.9-4.3,5.9-8.9,5.9-14c0-5.1-1.9-9.7-5.7-13.9
				c-3.8-4.2-8.8-6.3-15-6.3h-31.8V349.7z M335.7,409.4h34.4c6.6,0,11.9-2.3,16-6.9c4.1-4.6,6.1-9.6,6.1-15.1c0-5.4-2.1-10.4-6.3-15
				c-4.2-4.5-9.7-6.8-16.5-6.8h-33.6V409.4z"/>
			<path class="st2" d="M454.8,428.7c-9.7,0-17.7-2.8-24.3-8.4c-6.5-5.6-9.8-12.9-9.8-22.1c0-9.9,3.8-17.7,11.5-23.3
				c7.7-5.6,17.2-8.5,28.4-8.5c10,0,18.3,1.9,24.7,5.6v-2.6c0-6.7-2.3-12-6.9-16.1c-4.6-4-10.2-6-16.9-6c-5,0-9.4,1.2-13.5,3.5
				c-4,2.4-6.8,5.6-8.3,9.7l-15.6-6.7c2.1-5.4,6.3-10.5,12.4-15.1c6.2-4.6,14.4-7,24.5-7c11.6,0,21.3,3.4,29,10.2
				c7.7,6.8,11.5,16.4,11.5,28.8v55h-16.4v-12.6h-0.7C477.9,423.5,468,428.7,454.8,428.7z M457.6,413.1c7.1,0,13.5-2.6,19.2-7.9
				c5.8-5.3,8.6-11.5,8.6-18.7c-4.8-4-12.1-5.9-21.7-5.9c-8.3,0-14.6,1.8-18.8,5.4c-4.2,3.6-6.3,7.8-6.3,12.6c0,4.5,1.9,8,5.8,10.6
				C448.3,411.8,452.7,413.1,457.6,413.1z"/>
			<path class="st2" d="M518.6,425.7v-14.9l51.8-60.6H520v-15.6h71.4v14.9l-51.8,60.6h52.6v15.6H518.6z"/>
			<path class="st2" d="M647.9,428.7c-13.8,0-24.9-4.6-33.5-13.8c-8.6-9.2-12.9-20.7-12.9-34.7c0-13.3,4.2-24.7,12.5-34.2
				c8.4-9.5,19-14.3,32.1-14.3c13.5,0,24.3,4.4,32.4,13.2c8.1,8.8,12.2,20.6,12.2,35.3l-0.2,3.2h-71.9c0.5,9.2,3.6,16.4,9.2,21.7
				c5.6,5.3,12.2,8,19.8,8c12.3,0,20.6-5.2,24.9-15.6l15.2,6.3c-3,7.1-7.9,13-14.7,17.7C666.2,426.3,657.8,428.7,647.9,428.7z
				 M672.4,369.2c-0.4-5.2-2.8-10.2-7.2-14.9c-4.4-4.7-10.9-7.1-19.6-7.1c-6.3,0-11.8,2-16.4,5.9c-4.6,4-7.8,9.3-9.6,16H672.4z"/>
			<path class="st2" d="M723.3,425.7h-17.1V292.7h17.1V425.7z"/>
		</g>
		<g>
			<polygon class="st3" points="78.8,315.7 78.8,360.3 124.2,405.6 124.2,361.1 			"/>
			<polygon class="st4" points="169.6,406.5 169.6,451 124.2,405.6 124.2,361.1 			"/>
			<polygon class="st3" points="260.3,315.7 260.3,360.3 214.9,405.6 214.9,361.1 			"/>
			<polygon class="st5" points="169.6,406.5 214.9,361.1 214.9,405.6 169.6,451 			"/>
			
				<rect x="92.1" y="283.7" transform="matrix(0.7071 0.7071 -0.7071 0.7071 259.635 4.647)" class="st6" width="64.2" height="64.2"/>
			
				<rect x="137.5" y="329" transform="matrix(0.7071 0.7071 -0.7071 0.7071 305.0027 -14.1449)" class="st3" width="64.2" height="64.2"/>
			
				<rect x="182.9" y="283.7" transform="matrix(0.7071 0.7071 -0.7071 0.7071 286.2108 -59.5126)" class="st6" width="64.2" height="64.2"/>
		</g>
		<rect x="76.7" y="267.8" class="st7" width="185.8" height="185.8"/>
	</g>
	<text transform="matrix(1 0 0 1 179.5229 522.5488)" class="st1 st8 st9">{Fast, Correct} - Choose two</text>
</g>
</svg>
